# xmcd
#
# Track frame offsets: 
#        150
#        4725
#        27810
#        48665
#        65427
#        90947
#        126877
#        142305
#        165475
#        186705
#        205762
#        222385
#        240502
#        294042
#        316795
#
# Disc length: 4471 seconds
#
# Revision: 1
# Processed by: cddbd v1.5.1PL2 Copyright (c) Steve Scherf et al.
# Submitted via: ExactAudioCopy v0.95a5
#
DISCID=d311750f
DTITLE=Shakatak - Live at Ronnie Scott`s Club
DYEAR=1998
DGENRE=Jazz
TTITLE0=Intro
TTITLE1=Invitations
TTITLE2=Streetwalkin`
TTITLE3=Beyond Our Reach
TTITLE4=Day By Day
TTITLE5=Don`t Say That Again
TTITLE6=Blue Note
TTITLE7=Lumiere
TTITLE8=Easier Said Than Done
TTITLE9=You Are
TTITLE10=Mr. Manic and Sister Cool
TTITLE11=Chi Chi Castenengo
TTITLE12=Night Birds
TTITLE13=Let The Piano Play
TTITLE14=Down On The Street
EXTD=YEAR: 1998
EXTT0=
EXTT1=
EXTT2=
EXTT3=
EXTT4=
EXTT5=
EXTT6=
EXTT7=
EXTT8=
EXTT9=
EXTT10=
EXTT11=
EXTT12=
EXTT13=
EXTT14=
PLAYORDER=
